<svg width="27" height="40" viewBox="0 0 27 40" fill="none" xmlns="http://www.w3.org/2000/svg">
<path d="M7.60156 33.125C7.4375 32.3438 6.76562 31.9219 6.02344 31.9219C5 31.9219 4.20312 32.7109 4.20312 34.1719C4.20312 35.6328 5 36.4219 6.02344 36.4219C6.76562 36.4219 7.42969 36 7.60156 35.2266H8.30469C8.10156 36.3828 7.17188 37.0781 6.02344 37.0781C4.57031 37.0781 3.52344 35.9609 3.52344 34.1719C3.52344 32.3828 4.57031 31.2656 6.02344 31.2656C7.16406 31.2656 8.09375 31.9531 8.30469 33.125H7.60156ZM9 35.7969C9 34.8203 9.85938 34.6016 10.5938 34.5469C10.8633 34.5273 11.5508 34.4922 11.7422 34.4844V34.1406C11.7422 33.6016 11.4219 33.2891 10.7812 33.2891C10.2422 33.2891 9.92188 33.5391 9.82812 33.8594H9.125C9.21094 33.1797 9.875 32.7031 10.8125 32.7031C11.3672 32.7031 12.4062 32.8672 12.4062 34.2031V37H11.7422V36.4219H11.7109C11.5703 36.7109 11.1797 37.1016 10.4453 37.1016C9.64062 37.1016 9 36.625 9 35.7969ZM9.67188 35.8281C9.67188 36.2734 10.0469 36.5 10.5625 36.5C11.3203 36.5 11.7422 35.9922 11.7422 35.4609V35.0312C11.543 35.0469 10.875 35.0977 10.6719 35.1094C10.0625 35.1484 9.67188 35.3672 9.67188 35.8281ZM15.3828 32.7578V33.3203H14.4453V37H13.7656V33.3203H13.0859V32.7578H13.7656V32.1797C13.7656 31.4922 14.2266 31.0781 14.9766 31.0781C15.1406 31.0781 15.3359 31.1016 15.4766 31.125V31.7266C15.3359 31.7031 15.2109 31.6953 15.125 31.6953C14.6562 31.6953 14.4453 31.8906 14.4453 32.3281V32.7578H15.3828ZM17.7812 37.0859C16.5547 37.0859 15.7969 36.2188 15.7969 34.9141C15.7969 33.6094 16.5625 32.7031 17.7188 32.7031C18.6094 32.7031 19.5469 33.25 19.5469 34.8203V35.1016H16.4688C16.5 36 17.0234 36.4922 17.7812 36.4922C18.2891 36.4922 18.6094 36.2734 18.7656 36.0078H19.4844C19.2812 36.6484 18.6562 37.0859 17.7812 37.0859ZM16.4766 34.5312H18.8672C18.8672 33.8203 18.4141 33.2969 17.7188 33.2969C16.9844 33.2969 16.5156 33.875 16.4766 34.5312Z" fill="black"/>
<path d="M6.5625 4.6875V0.9375C6.5625 0.68886 6.66127 0.450403 6.83709 0.274587C7.0129 0.098772 7.25136 0 7.5 0C7.74864 0 7.9871 0.098772 8.16291 0.274587C8.33873 0.450403 8.4375 0.68886 8.4375 0.9375V4.6875C8.4375 4.93614 8.33873 5.1746 8.16291 5.35041C7.9871 5.52623 7.74864 5.625 7.5 5.625C7.25136 5.625 7.0129 5.52623 6.83709 5.35041C6.66127 5.1746 6.5625 4.93614 6.5625 4.6875ZM11.25 5.625C11.4986 5.625 11.7371 5.52623 11.9129 5.35041C12.0887 5.1746 12.1875 4.93614 12.1875 4.6875V0.9375C12.1875 0.68886 12.0887 0.450403 11.9129 0.274587C11.7371 0.098772 11.4986 0 11.25 0C11.0014 0 10.7629 0.098772 10.5871 0.274587C10.4113 0.450403 10.3125 0.68886 10.3125 0.9375V4.6875C10.3125 4.93614 10.4113 5.1746 10.5871 5.35041C10.7629 5.52623 11.0014 5.625 11.25 5.625ZM15 5.625C15.2486 5.625 15.4871 5.52623 15.6629 5.35041C15.8387 5.1746 15.9375 4.93614 15.9375 4.6875V0.9375C15.9375 0.68886 15.8387 0.450403 15.6629 0.274587C15.4871 0.098772 15.2486 0 15 0C14.7514 0 14.5129 0.098772 14.3371 0.274587C14.1613 0.450403 14.0625 0.68886 14.0625 0.9375V4.6875C14.0625 4.93614 14.1613 5.1746 14.3371 5.35041C14.5129 5.52623 14.7514 5.625 15 5.625ZM26.25 12.1875V13.125C26.2493 14.317 25.7946 15.4641 24.9782 16.3327C24.1618 17.2013 23.0452 17.7263 21.8555 17.8008C21.2097 19.6068 20.122 21.2224 18.6914 22.5H21.5625C21.8111 22.5 22.0496 22.5988 22.2254 22.7746C22.4012 22.9504 22.5 23.1889 22.5 23.4375C22.5 23.6861 22.4012 23.9246 22.2254 24.1004C22.0496 24.2762 21.8111 24.375 21.5625 24.375H0.9375C0.68886 24.375 0.450403 24.2762 0.274587 24.1004C0.098772 23.9246 0 23.6861 0 23.4375C0 23.1889 0.098772 22.9504 0.274587 22.7746C0.450403 22.5988 0.68886 22.5 0.9375 22.5H3.80859C2.6139 21.4423 1.65681 20.1436 1.00035 18.6893C0.343892 17.235 0.00295856 15.6581 0 14.0625V8.4375C0 8.18886 0.098772 7.9504 0.274587 7.77459C0.450403 7.59877 0.68886 7.5 0.9375 7.5H21.5625C22.8057 7.5 23.998 7.99386 24.8771 8.87294C25.7561 9.75201 26.25 10.9443 26.25 12.1875ZM11.25 17.8008C9.66818 17.0293 11.2213 17.7868 11.25 17.8008V17.8008ZM24.375 12.1875C24.3743 11.6064 24.1937 11.0398 23.858 10.5656C23.5222 10.0914 23.0478 9.73275 22.5 9.53906V14.0625C22.5007 14.6513 22.4537 15.2391 22.3594 15.8203C22.9411 15.6485 23.4516 15.2932 23.8148 14.8074C24.1781 14.3217 24.3746 13.7315 24.375 13.125V12.1875Z" fill="black"/>
</svg>
