<svg width="23" height="38" viewBox="0 0 23 38" fill="none" xmlns="http://www.w3.org/2000/svg">
<path d="M1.48438 35V29.3438H2.1875V31.8594H5.17969V29.3438H5.89062V35H5.17969V32.4766H2.1875V35H1.48438ZM8.78125 35.0859C7.625 35.0859 6.84375 34.2188 6.84375 32.8984C6.84375 31.5781 7.625 30.7031 8.78125 30.7031C9.92969 30.7031 10.7031 31.5781 10.7031 32.8984C10.7031 34.2188 9.92969 35.0859 8.78125 35.0859ZM8.78125 34.4922C9.63281 34.4922 10.0312 33.7422 10.0312 32.8984C10.0312 32.0547 9.63281 31.2969 8.78125 31.2969C7.91406 31.2969 7.51562 32.0547 7.51562 32.8984C7.51562 33.7422 7.91406 34.4922 8.78125 34.4922ZM11.5859 35V30.7578H12.2344V31.4219H12.2891C12.4688 30.9688 12.875 30.7031 13.4297 30.7031C13.9844 30.7031 14.3594 30.9688 14.5625 31.4219H14.6094C14.8281 30.9844 15.2734 30.7031 15.8828 30.7031C16.6406 30.7031 17.1797 31.1641 17.1797 32.1641V35H16.5078V32.1719C16.5078 31.5469 16.1094 31.3047 15.6484 31.3047C15.0547 31.3047 14.7188 31.7031 14.7188 32.2422V35H14.0391V32.1016C14.0391 31.625 13.6953 31.3047 13.2109 31.3047C12.7031 31.3047 12.2578 31.7344 12.2578 32.3516V35H11.5859ZM20.0391 35.0859C18.8125 35.0859 18.0547 34.2188 18.0547 32.9141C18.0547 31.6094 18.8203 30.7031 19.9766 30.7031C20.8672 30.7031 21.8047 31.25 21.8047 32.8203V33.1016H18.7266C18.7578 34 19.2812 34.4922 20.0391 34.4922C20.5469 34.4922 20.8672 34.2734 21.0234 34.0078H21.7422C21.5391 34.6484 20.9141 35.0859 20.0391 35.0859ZM18.7344 32.5312H21.125C21.125 31.8203 20.6719 31.2969 19.9766 31.2969C19.2422 31.2969 18.7734 31.875 18.7344 32.5312Z" fill="black"/>
<path d="M20.9375 24.375H15.3125C14.4494 24.375 13.75 23.6756 13.75 22.8125V17.1875C13.75 16.4969 13.1906 15.9375 12.5 15.9375H9.99999C9.30937 15.9375 8.75 16.4969 8.75 17.1875V22.8125C8.75 23.6756 8.05062 24.375 7.1875 24.375H1.5625C0.699375 24.375 0 23.6756 0 22.8125V10.8831C0 9.44624 0.65875 8.08875 1.78687 7.2L10.6694 0.200625C11.01 -0.066875 11.49 -0.066875 11.83 0.200625L20.7137 7.2C21.8419 8.08875 22.5 9.44562 22.5 10.8819V22.8125C22.5 23.6756 21.8006 24.375 20.9375 24.375Z" fill="black"/>
</svg>
