<svg width="23" height="41" viewBox="0 0 23 41" fill="none" xmlns="http://www.w3.org/2000/svg">
<path d="M4.25781 32.3438H5.10156L7.00781 37H7.07812L8.98438 32.3438H9.82812V38H9.16406V33.7266H9.10938L7.35156 38H6.72656L4.96875 33.7266H4.92188V38H4.25781V32.3438ZM10.7891 36.7969C10.7891 35.8203 11.6484 35.6016 12.3828 35.5469C12.6523 35.5273 13.3398 35.4922 13.5312 35.4844V35.1406C13.5312 34.6016 13.2109 34.2891 12.5703 34.2891C12.0312 34.2891 11.7109 34.5391 11.6172 34.8594H10.9141C11 34.1797 11.6641 33.7031 12.6016 33.7031C13.1562 33.7031 14.1953 33.8672 14.1953 35.2031V38H13.5312V37.4219H13.5C13.3594 37.7109 12.9688 38.1016 12.2344 38.1016C11.4297 38.1016 10.7891 37.625 10.7891 36.7969ZM11.4609 36.8281C11.4609 37.2734 11.8359 37.5 12.3516 37.5C13.1094 37.5 13.5312 36.9922 13.5312 36.4609V36.0312C13.332 36.0469 12.6641 36.0977 12.4609 36.1094C11.8516 36.1484 11.4609 36.3672 11.4609 36.8281ZM15.2734 39.5938V33.7578H15.9219V34.4297H16C16.1406 34.2031 16.4062 33.7031 17.2266 33.7031C18.2891 33.7031 19.0312 34.5469 19.0312 35.8906C19.0312 37.2344 18.2891 38.0859 17.2344 38.0859C16.4219 38.0859 16.1406 37.5859 16 37.3516H15.9453V39.5938H15.2734ZM15.9297 35.875C15.9297 36.8281 16.3594 37.4844 17.1406 37.4844C17.9453 37.4844 18.3594 36.7812 18.3594 35.875C18.3594 34.9922 17.9531 34.3047 17.1406 34.3047C16.3438 34.3047 15.9297 34.9375 15.9297 35.875Z" fill="black"/>
<path fill-rule="evenodd" clip-rule="evenodd" d="M23 11.0455C23 4.94524 17.8513 0 11.5 0C5.14873 0 0 4.94524 0 11.0455C0 15.6173 3.62839 21.6365 10.7333 26.7545C11.1877 27.0818 11.8123 27.0818 12.2667 26.7545C19.3716 21.6365 23 15.6173 23 11.0455Z" fill="black"/>
<path d="M12.5987 14.7182C12.4116 14.5425 12.4116 14.2575 12.5987 14.0818C12.7858 13.9061 13.0892 13.9061 13.2763 14.0818L15.193 15.8818C15.3801 16.0575 15.3801 16.3425 15.193 16.5182C15.0059 16.6939 14.7025 16.6939 14.5153 16.5182L12.5987 14.7182Z" fill="black" stroke="white"/>
<path fill-rule="evenodd" clip-rule="evenodd" d="M8 12C8 13.6568 9.34315 15 11 15C12.6569 15 14 13.6568 14 12C14 10.3431 12.6569 8.99998 11 8.99998C9.34315 8.99998 8 10.3431 8 12ZM13.1428 12C13.1428 13.1835 12.1834 14.1429 11 14.1429C9.81651 14.1429 8.85712 13.1835 8.85712 12C8.85712 10.8166 9.81651 9.85716 11 9.85716C12.1834 9.85716 13.1428 10.8166 13.1428 12Z" fill="black"/>
<path d="M11 14.5C9.61929 14.5 8.5 13.3807 8.5 12H7.5C7.5 13.933 9.067 15.5 11 15.5V14.5ZM13.5 12C13.5 13.3807 12.3807 14.5 11 14.5V15.5C12.933 15.5 14.5 13.933 14.5 12H13.5ZM11 9.49998C12.3807 9.49998 13.5 10.6193 13.5 12H14.5C14.5 10.067 12.933 8.49998 11 8.49998V9.49998ZM8.5 12C8.5 10.6193 9.61929 9.49998 11 9.49998V8.49998C9.067 8.49998 7.5 10.067 7.5 12H8.5ZM11 14.6429C12.4596 14.6429 13.6428 13.4596 13.6428 12H12.6428C12.6428 12.9073 11.9073 13.6429 11 13.6429V14.6429ZM8.35712 12C8.35712 13.4596 9.54036 14.6429 11 14.6429V13.6429C10.0926 13.6429 9.35712 12.9073 9.35712 12H8.35712ZM11 9.35716C9.54036 9.35716 8.35712 10.5404 8.35712 12H9.35712C9.35712 11.0927 10.0926 10.3572 11 10.3572V9.35716ZM13.6428 12C13.6428 10.5404 12.4596 9.35716 11 9.35716V10.3572C11.9073 10.3572 12.6428 11.0927 12.6428 12H13.6428Z" fill="white"/>
</svg>
