<svg width="23" height="41" viewBox="0 0 23 41" fill="none" xmlns="http://www.w3.org/2000/svg">
<path d="M6.59766 32.3438H7.44141L9.34766 37H9.41797L11.3242 32.3438H12.168V38H11.5039V33.7266H11.4492L9.69141 38H9.06641L7.30859 33.7266H7.26172V38H6.59766V32.3438ZM13.7617 39.5938C13.6133 39.5938 13.4727 39.5859 13.3867 39.5781V38.9766C13.457 38.9844 13.6133 38.9922 13.7148 38.9922C13.9883 38.9922 14.2148 38.9688 14.4414 38.3516L14.5664 38.0312L12.9961 33.7578H13.7305L14.8867 37.125H14.9336L16.0898 33.7578H16.8242L15.0273 38.6094C14.7773 39.2734 14.3633 39.5938 13.7617 39.5938Z" fill="black"/>
<path d="M11 13C14.3137 13 17 10.3137 17 7C17 3.68629 14.3137 1 11 1C7.68629 1 5 3.68629 5 7C5 10.3137 7.68629 13 11 13ZM11 13H5C2.79187 13 1 14.7875 1 16.9977V17.5C1 19.5724 1.94101 21.4825 3.69029 22.8503C5.42666 24.2079 7.91125 25 11 25C14.0887 25 16.5733 24.2079 18.3097 22.8503C20.059 21.4825 21 19.5724 21 17.5V16.9977C21 14.7875 19.2081 13 17 13H11Z" fill="black" stroke="black" stroke-width="2"/>
</svg>
