<svg width="30" height="41" viewBox="0 0 30 41" fill="none" xmlns="http://www.w3.org/2000/svg">
<path d="M4.98438 38V32.3438H5.6875V34.8594H8.67969V32.3438H9.39062V38H8.67969V35.4766H5.6875V38H4.98438ZM12.2812 38.0859C11.125 38.0859 10.3438 37.2188 10.3438 35.8984C10.3438 34.5781 11.125 33.7031 12.2812 33.7031C13.4297 33.7031 14.2031 34.5781 14.2031 35.8984C14.2031 37.2188 13.4297 38.0859 12.2812 38.0859ZM12.2812 37.4922C13.1328 37.4922 13.5312 36.7422 13.5312 35.8984C13.5312 35.0547 13.1328 34.2969 12.2812 34.2969C11.4141 34.2969 11.0156 35.0547 11.0156 35.8984C11.0156 36.7422 11.4141 37.4922 12.2812 37.4922ZM15.0859 38V33.7578H15.7344V34.4219H15.7891C15.9688 33.9688 16.375 33.7031 16.9297 33.7031C17.4844 33.7031 17.8594 33.9688 18.0625 34.4219H18.1094C18.3281 33.9844 18.7734 33.7031 19.3828 33.7031C20.1406 33.7031 20.6797 34.1641 20.6797 35.1641V38H20.0078V35.1719C20.0078 34.5469 19.6094 34.3047 19.1484 34.3047C18.5547 34.3047 18.2188 34.7031 18.2188 35.2422V38H17.5391V35.1016C17.5391 34.625 17.1953 34.3047 16.7109 34.3047C16.2031 34.3047 15.7578 34.7344 15.7578 35.3516V38H15.0859ZM23.5391 38.0859C22.3125 38.0859 21.5547 37.2188 21.5547 35.9141C21.5547 34.6094 22.3203 33.7031 23.4766 33.7031C24.3672 33.7031 25.3047 34.25 25.3047 35.8203V36.1016H22.2266C22.2578 37 22.7812 37.4922 23.5391 37.4922C24.0469 37.4922 24.3672 37.2734 24.5234 37.0078H25.2422C25.0391 37.6484 24.4141 38.0859 23.5391 38.0859ZM22.2344 35.5312H24.625C24.625 34.8203 24.1719 34.2969 23.4766 34.2969C22.7422 34.2969 22.2734 34.875 22.2344 35.5312Z" fill="#40E8FF"/>
<path d="M24.6875 26.875H19.0625C18.1994 26.875 17.5 26.1756 17.5 25.3125V19.6875C17.5 18.9969 16.9406 18.4375 16.25 18.4375H13.75C13.0594 18.4375 12.5 18.9969 12.5 19.6875V25.3125C12.5 26.1756 11.8006 26.875 10.9375 26.875H5.3125C4.44937 26.875 3.75 26.1756 3.75 25.3125V13.3831C3.75 11.9462 4.40875 10.5887 5.53687 9.7L14.4194 2.70062C14.76 2.43313 15.24 2.43313 15.58 2.70062L24.4637 9.7C25.5919 10.5887 26.25 11.9456 26.25 13.3819V25.3125C26.25 26.1756 25.5506 26.875 24.6875 26.875Z" fill="#40E8FF"/>
</svg>
